<svg width="84.564" height="23" viewBox="0 0 84.564 23" xmlns="http://www.w3.org/2000/svg"><g fill="#fff" stroke="#fff"><path d="M4.418 6.909l-2.593-5.32c-.093-.185-.216-.297-.441-.297-.267 0-.461.164-.461.46v6.059c0 .256.174.471.46.471.298 0 .472-.215.472-.471V3.659l2.132 4.336c.082.174.205.287.43.287.226 0 .35-.113.431-.287L6.98 3.66v4.152c0 .256.175.471.472.471.287 0 .461-.215.461-.471V1.753c0-.297-.195-.461-.461-.461-.226 0-.349.112-.44.297zM10.568 7.8V4.151a.475.475 0 00-.482-.481.475.475 0 00-.482.481v3.65c0 .266.195.481.482.481a.469.469 0 00.482-.482zM9.522 2.41c0 .307.257.564.564.564a.569.569 0 00.564-.564.569.569 0 00-.564-.564.569.569 0 00-.564.564zM15.642 7.011c0-.83-.574-1.127-1.681-1.445-.738-.215-1.046-.328-1.046-.677 0-.358.349-.492.861-.492.37 0 .687.082.974.236.154.082.287.144.42.144.267 0 .37-.175.37-.36 0-.204-.196-.368-.472-.501a3.03 3.03 0 00-1.271-.287c-1.107 0-1.815.502-1.815 1.27 0 .739.462 1.17 1.722 1.507.718.195 1.005.328 1.005.677 0 .318-.297.523-.85.523-.493 0-.882-.195-1.16-.4-.112-.082-.214-.144-.378-.144-.205 0-.37.134-.37.339 0 .133.062.287.206.4.41.317.984.522 1.63.522 1.22 0 1.855-.553 1.855-1.312zM24.365 7.8V5.68c0-1.2-.595-2.05-1.835-2.05-.728 0-1.312.297-1.712.912-.277-.543-.83-.912-1.568-.912-.605 0-1.169.317-1.446.86v-.327c0-.267-.153-.492-.481-.492-.298 0-.482.205-.482.492V7.8c0 .267.205.482.482.482a.469.469 0 00.481-.482V5.76c0-.676.41-1.26 1.19-1.26.758 0 1.127.543 1.127 1.25V7.8c0 .267.195.482.482.482a.463.463 0 00.482-.482V5.76c0-.676.46-1.26 1.22-1.26.758 0 1.096.543 1.096 1.25V7.8c0 .267.205.482.482.482a.469.469 0 00.482-.482zM30.258 5.976c0-1.292-.922-2.347-2.347-2.347-1.425 0-2.347 1.055-2.347 2.347 0 1.291.922 2.347 2.347 2.347 1.425 0 2.347-1.056 2.347-2.347zm-.963 0c0 .83-.482 1.527-1.384 1.527-.902 0-1.384-.697-1.384-1.527s.482-1.527 1.384-1.527c.902 0 1.384.697 1.384 1.527zM39.166 5.976c0-1.363-.964-2.347-2.143-2.347-.686 0-1.301.348-1.609.881v-.348c0-.267-.174-.492-.471-.492-.298 0-.462.215-.462.481v5.566c0 .267.195.482.482.482a.469.469 0 00.482-.482V7.442c.328.522.892.881 1.578.881 1.18 0 2.143-.933 2.143-2.347zm-.964 0c0 .922-.543 1.548-1.373 1.548s-1.384-.728-1.384-1.548c0-.82.553-1.548 1.384-1.548.83 0 1.373.625 1.373 1.548zM43.133 4.1a.43.43 0 00-.451-.451c-.646 0-1.128.369-1.302.953v-.44c0-.298-.195-.492-.472-.492a.474.474 0 00-.492.492V7.8c0 .267.174.482.482.482a.475.475 0 00.482-.482V6.12c0-1.036.492-1.569 1.302-1.569a.442.442 0 00.45-.451zM45.88 3.629c-1.323 0-2.296 1.004-2.296 2.347 0 1.281.81 2.347 2.337 2.347.738 0 1.435-.297 1.824-.748a.427.427 0 00.123-.277c0-.246-.184-.4-.4-.4a.47.47 0 00-.317.154c-.339.318-.656.502-1.19.502-.85 0-1.332-.533-1.383-1.24h3.065c.276 0 .369-.164.369-.328 0-1.312-.84-2.357-2.132-2.357zm1.24 1.906h-2.522c.093-.635.574-1.138 1.282-1.138.697 0 1.158.523 1.24 1.138zM51.394 3.629c-1.507 0-2.398 1.035-2.398 2.347s.891 2.347 2.398 2.347c.646 0 1.281-.277 1.589-.646a.47.47 0 00.143-.338c0-.205-.164-.39-.44-.39-.175 0-.287.144-.41.247a1.301 1.301 0 01-.872.317c-.953 0-1.445-.717-1.445-1.537s.492-1.538 1.445-1.538c.339 0 .636.113.872.318.123.103.235.246.41.246.276 0 .44-.184.44-.39a.47.47 0 00-.143-.338c-.308-.369-.943-.645-1.589-.645zM55.371 7.8V4.151a.475.475 0 00-.482-.481.475.475 0 00-.481.481v3.65c0 .266.194.481.481.481a.469.469 0 00.482-.482zM54.326 2.41c0 .307.256.564.563.564a.569.569 0 00.564-.564.569.569 0 00-.564-.564.569.569 0 00-.563.564zM61.316 5.976c0-1.292-.922-2.347-2.347-2.347-1.425 0-2.347 1.055-2.347 2.347 0 1.291.922 2.347 2.347 2.347 1.425 0 2.347-1.056 2.347-2.347zm-.963 0c0 .83-.482 1.527-1.384 1.527-.902 0-1.384-.697-1.384-1.527s.482-1.527 1.384-1.527c.902 0 1.384.697 1.384 1.527zM70.224 5.976c0-1.363-.964-2.347-2.143-2.347-.686 0-1.301.348-1.609.881v-.348c0-.267-.174-.492-.471-.492-.298 0-.462.215-.462.481v5.566c0 .267.195.482.482.482a.469.469 0 00.482-.482V7.442c.328.522.892.881 1.578.881 1.18 0 2.143-.933 2.143-2.347zm-.964 0c0 .922-.543 1.548-1.373 1.548s-1.384-.728-1.384-1.548c0-.82.553-1.548 1.384-1.548.83 0 1.373.625 1.373 1.548zM75.308 7.8V5.566c0-1.25-.759-1.937-2.112-1.937-.461 0-1.015.082-1.373.225-.257.103-.451.226-.451.461 0 .226.153.4.41.4.112 0 .225-.051.317-.082a2.804 2.804 0 011.015-.184c.892 0 1.23.369 1.23 1.178v.441a2.01 2.01 0 00-1.384-.523c-.994 0-1.742.482-1.742 1.394 0 .82.707 1.384 1.701 1.384.656 0 1.138-.225 1.446-.615V7.8c0 .267.184.482.471.482.318 0 .472-.215.472-.482zm-.964-.86c0 .43-.512.727-1.117.727-.615 0-1.046-.266-1.046-.728 0-.46.42-.727 1.066-.727.544 0 1.097.266 1.097.727zM79.49 4.1a.43.43 0 00-.451-.451c-.646 0-1.128.369-1.302.953v-.44c0-.298-.195-.492-.472-.492a.474.474 0 00-.492.492V7.8c0 .267.175.482.482.482a.475.475 0 00.482-.482V6.12c0-1.036.492-1.569 1.302-1.569a.442.442 0 00.45-.451zM84.184 7.8V5.566c0-1.25-.758-1.937-2.111-1.937-.462 0-1.015.082-1.374.225-.256.103-.45.226-.45.461 0 .226.153.4.41.4.112 0 .225-.051.317-.082a2.804 2.804 0 011.015-.184c.892 0 1.23.369 1.23 1.178v.441a2.01 2.01 0 00-1.384-.523c-.994 0-1.743.482-1.743 1.394 0 .82.708 1.384 1.702 1.384.656 0 1.138-.225 1.445-.615V7.8c0 .267.185.482.472.482.318 0 .471-.215.471-.482zm-.963-.86c0 .43-.513.727-1.118.727-.615 0-1.045-.266-1.045-.728 0-.46.42-.727 1.066-.727.543 0 1.097.266 1.097.727z" stroke-width=".01025"/></g><g fill="#fff" stroke="#fff"><path d="M2.89 14.904c-1.506 0-2.398 1.035-2.398 2.347s.892 2.347 2.399 2.347c.645 0 1.28-.277 1.588-.646a.47.47 0 00.144-.338c0-.205-.164-.39-.44-.39-.175 0-.288.144-.411.247a1.301 1.301 0 01-.871.317c-.953 0-1.445-.717-1.445-1.537s.492-1.538 1.445-1.538c.338 0 .635.113.871.318.123.103.236.246.41.246.277 0 .44-.184.44-.39a.47.47 0 00-.143-.338c-.307-.369-.943-.645-1.588-.645zM5.832 15.426v2.091c0 1.21.677 2.081 1.856 2.081.676 0 1.189-.307 1.476-.86v.327c0 .338.215.492.481.492.277 0 .482-.184.482-.492v-3.639a.469.469 0 00-.482-.481.475.475 0 00-.481.481v2.04c0 .697-.441 1.261-1.21 1.261-.769 0-1.158-.533-1.158-1.25v-2.05a.469.469 0 00-.482-.482c-.307 0-.482.225-.482.481zM15.498 19.075v-2.234c0-1.25-.758-1.937-2.111-1.937-.462 0-1.015.082-1.374.225-.256.103-.45.226-.45.461 0 .226.153.4.41.4.112 0 .225-.051.317-.082a2.804 2.804 0 011.015-.184c.891 0 1.23.369 1.23 1.178v.441a2.01 2.01 0 00-1.384-.523c-.994 0-1.743.482-1.743 1.394 0 .82.708 1.384 1.702 1.384.656 0 1.138-.225 1.445-.615v.092c0 .267.185.482.472.482.317 0 .471-.215.471-.482zm-.963-.86c0 .43-.513.727-1.118.727-.615 0-1.045-.266-1.045-.728 0-.46.42-.727 1.066-.727.543 0 1.097.266 1.097.727zM17.927 19.075v-6.027a.469.469 0 00-.481-.481.469.469 0 00-.482.481v6.027c0 .267.195.482.482.482a.469.469 0 00.481-.482zM19.178 17.251c0 1.414.963 2.347 2.142 2.347.687 0 1.25-.359 1.579-.881v2.275c0 .267.195.482.482.482a.469.469 0 00.481-.482v-5.566c0-.266-.164-.481-.461-.481-.297 0-.471.225-.471.492v.348c-.308-.533-.923-.881-1.61-.881-1.179 0-2.142.984-2.142 2.347zm.963 0c0-.923.544-1.548 1.374-1.548.83 0 1.384.728 1.384 1.548 0 .82-.554 1.548-1.384 1.548-.83 0-1.374-.626-1.374-1.548zM25.349 15.426v2.091c0 1.21.676 2.081 1.855 2.081.676 0 1.189-.307 1.476-.86v.327c0 .338.215.492.482.492.276 0 .481-.184.481-.492v-3.639a.469.469 0 00-.481-.481.475.475 0 00-.482.481v2.04c0 .697-.44 1.261-1.21 1.261-.768 0-1.158-.533-1.158-1.25v-2.05a.469.469 0 00-.482-.482c-.307 0-.481.225-.481.481zM32.144 19.075v-3.649a.475.475 0 00-.481-.481.475.475 0 00-.482.481v3.65c0 .266.195.481.482.481a.469.469 0 00.481-.482zM31.1 13.684c0 .307.256.564.564.564a.569.569 0 00.563-.564.569.569 0 00-.563-.564.569.569 0 00-.564.564zM35.69 14.904c-1.321 0-2.295 1.004-2.295 2.347 0 1.281.81 2.347 2.337 2.347.738 0 1.435-.297 1.824-.748a.427.427 0 00.123-.277c0-.246-.184-.4-.4-.4a.47.47 0 00-.317.154c-.338.318-.656.502-1.19.502-.85 0-1.332-.533-1.383-1.24h3.065c.277 0 .369-.164.369-.328 0-1.312-.84-2.357-2.132-2.357zm1.241 1.906H34.41c.092-.635.574-1.138 1.28-1.138.698 0 1.16.523 1.241 1.138zM41.8 15.375a.43.43 0 00-.451-.45c-.646 0-1.128.368-1.302.952v-.44c0-.298-.195-.492-.471-.492a.474.474 0 00-.492.492v3.638c0 .267.174.482.481.482a.475.475 0 00.482-.482v-1.68c0-1.036.492-1.569 1.302-1.569a.442.442 0 00.451-.45zM46.628 19.075v-3.649a.475.475 0 00-.482-.481.475.475 0 00-.482.481v3.65c0 .266.195.481.482.481a.469.469 0 00.482-.482zm-1.046-5.391c0 .307.257.564.564.564a.569.569 0 00.564-.564.569.569 0 00-.564-.564.569.569 0 00-.564.564zM51.702 18.286c0-.83-.574-1.127-1.681-1.445-.738-.215-1.046-.328-1.046-.677 0-.358.349-.492.861-.492.37 0 .687.082.974.236.154.082.287.144.42.144.267 0 .37-.175.37-.36 0-.204-.196-.368-.472-.501a3.03 3.03 0 00-1.271-.287c-1.107 0-1.815.502-1.815 1.27 0 .739.462 1.17 1.722 1.507.718.195 1.005.328 1.005.677 0 .318-.297.523-.85.523-.493 0-.882-.195-1.16-.4-.112-.082-.214-.144-.378-.144-.205 0-.37.134-.37.339 0 .133.062.287.206.4.41.317.984.522 1.63.522 1.22 0 1.855-.553 1.855-1.312zM53.864 19.075v-6.027a.469.469 0 00-.481-.481.469.469 0 00-.482.481v6.027c0 .267.195.482.482.482a.469.469 0 00.481-.482zM59.235 19.075v-2.234c0-1.25-.758-1.937-2.111-1.937-.461 0-1.015.082-1.374.225-.256.103-.45.226-.45.461 0 .226.153.4.41.4.112 0 .225-.051.317-.082a2.804 2.804 0 011.015-.184c.892 0 1.23.369 1.23 1.178v.441a2.01 2.01 0 00-1.384-.523c-.994 0-1.742.482-1.742 1.394 0 .82.707 1.384 1.701 1.384.656 0 1.138-.225 1.445-.615v.092c0 .267.185.482.472.482.318 0 .471-.215.471-.482zm-.963-.86c0 .43-.513.727-1.117.727-.615 0-1.046-.266-1.046-.728 0-.46.42-.727 1.066-.727.543 0 1.097.266 1.097.727z" stroke-width=".01025"/></g></svg>