<svg width="144.178" height="12" viewBox="0 0 144.178 12" xmlns="http://www.w3.org/2000/svg"><g fill="#fff" stroke="#fff"><path d="M3.604 7.353l-2.34-5.645c-.1-.244-.266-.31-.465-.31-.244 0-.51.166-.51.498 0 .067.022.134.055.222L3.15 8.662c.077.188.222.3.454.3.233 0 .378-.112.455-.3l2.806-6.544a.647.647 0 00.056-.222c0-.332-.267-.499-.51-.499-.2 0-.367.067-.466.311zM7.375 4.492v2.262c0 1.309.732 2.252 2.008 2.252.732 0 1.286-.333 1.597-.932v.355c0 .366.233.532.521.532.3 0 .521-.2.521-.532V4.492a.507.507 0 00-.521-.522c-.3 0-.521.233-.521.522v2.207c0 .754-.477 1.364-1.309 1.364S8.418 7.486 8.418 6.71V4.492a.507.507 0 00-.521-.522c-.333 0-.522.244-.522.522zM15.86 3.926c-1.431 0-2.485 1.087-2.485 2.54 0 1.386.876 2.54 2.529 2.54.798 0 1.553-.322 1.974-.81a.462.462 0 00.133-.3.42.42 0 00-.432-.432.509.509 0 00-.344.166c-.366.344-.71.544-1.287.544-.92 0-1.441-.577-1.497-1.342h3.316c.3 0 .4-.178.4-.355 0-1.42-.91-2.55-2.307-2.55zm1.342 2.063h-2.729c.1-.688.621-1.231 1.387-1.231.754 0 1.253.566 1.342 1.23zM20.573 8.44V1.919a.507.507 0 00-.521-.522.507.507 0 00-.521.522V8.44c0 .288.21.521.52.521.311 0 .522-.233.522-.521zM27.006 6.466c0-1.398-.998-2.54-2.54-2.54s-2.54 1.142-2.54 2.54c0 1.397.998 2.54 2.54 2.54s2.54-1.143 2.54-2.54zm-1.043 0c0 .898-.521 1.652-1.497 1.652-.976 0-1.497-.754-1.497-1.652 0-.899.521-1.653 1.497-1.653.976 0 1.497.754 1.497 1.653zM32.152 7.586c0-.898-.621-1.22-1.82-1.564-.798-.233-1.13-.355-1.13-.732 0-.388.377-.532.931-.532.4 0 .743.089 1.054.255.166.089.31.155.455.155.288 0 .399-.188.399-.388 0-.222-.21-.4-.51-.543-.41-.2-.92-.31-1.376-.31-1.197 0-1.963.543-1.963 1.374 0 .799.5 1.265 1.864 1.63.776.211 1.087.356 1.087.733 0 .343-.322.565-.921.565-.532 0-.954-.21-1.253-.432-.122-.089-.233-.156-.41-.156-.222 0-.4.145-.4.366 0 .145.067.311.222.433.444.344 1.065.566 1.763.566 1.32 0 2.008-.6 2.008-1.42zM36.355 6.466c0 1.475 1.043 2.54 2.318 2.54.743 0 1.409-.377 1.741-.954v.377c0 .288.189.532.51.532.322 0 .5-.233.5-.521V1.919a.507.507 0 00-.522-.522.507.507 0 00-.521.522v2.96a1.995 1.995 0 00-1.708-.953c-1.275 0-2.318 1.01-2.318 2.54zm1.043 0c0-.998.587-1.675 1.486-1.675.898 0 1.497.788 1.497 1.675s-.599 1.675-1.497 1.675c-.899 0-1.486-.677-1.486-1.675zM44.13 8.44V4.492a.514.514 0 00-.522-.522c-.3 0-.52.233-.52.522V8.44c0 .288.21.521.52.521.31 0 .522-.233.522-.521zm-1.132-5.834c0 .333.278.61.61.61.333 0 .61-.277.61-.61a.615.615 0 00-.61-.61.615.615 0 00-.61.61zM48.732 4.436a.466.466 0 00-.488-.488c-.698 0-1.22.4-1.408 1.032v-.477c0-.322-.211-.533-.51-.533a.513.513 0 00-.533.533V8.44c0 .288.189.521.521.521.3 0 .522-.233.522-.521V6.621c0-1.12.532-1.697 1.408-1.697.278 0 .488-.21.488-.488zM51.705 3.926c-1.431 0-2.485 1.087-2.485 2.54 0 1.386.876 2.54 2.529 2.54.798 0 1.553-.322 1.974-.81a.462.462 0 00.133-.3.42.42 0 00-.432-.432.509.509 0 00-.344.166c-.366.344-.71.544-1.287.544-.92 0-1.442-.577-1.497-1.342h3.316c.3 0 .4-.178.4-.355 0-1.42-.91-2.55-2.307-2.55zm1.342 2.063h-2.729c.1-.688.621-1.231 1.387-1.231.754 0 1.253.566 1.342 1.23zM57.671 3.926c-1.63 0-2.595 1.12-2.595 2.54s.965 2.54 2.595 2.54c.699 0 1.387-.3 1.72-.7.088-.099.155-.199.155-.365 0-.222-.178-.422-.477-.422-.189 0-.31.156-.444.267a1.408 1.408 0 01-.943.343c-1.031 0-1.563-.776-1.563-1.663s.532-1.664 1.563-1.664c.366 0 .688.122.943.344.133.111.255.266.444.266.3 0 .477-.2.477-.421a.508.508 0 00-.156-.366c-.332-.4-1.02-.699-1.719-.699zM62.562 8.44V4.924h.954a.426.426 0 00.433-.432.426.426 0 00-.433-.433h-.954V2.606a.507.507 0 00-.521-.521.507.507 0 00-.521.521V4.06h-.843a.426.426 0 00-.433.433c0 .244.189.432.433.432h.843V8.44c0 .288.21.521.521.521.31 0 .521-.233.521-.521zM69.416 6.466c0-1.398-.998-2.54-2.54-2.54-1.541 0-2.54 1.142-2.54 2.54 0 1.397.999 2.54 2.54 2.54 1.542 0 2.54-1.143 2.54-2.54zm-1.042 0c0 .898-.521 1.652-1.497 1.652-.976 0-1.498-.754-1.498-1.652 0-.899.522-1.653 1.498-1.653s1.497.754 1.497 1.653zM74.562 7.586c0-.898-.62-1.22-1.819-1.564-.798-.233-1.13-.355-1.13-.732 0-.388.376-.532.93-.532.4 0 .744.089 1.054.255.167.089.311.155.455.155.289 0 .4-.188.4-.388 0-.222-.211-.4-.51-.543-.411-.2-.921-.31-1.376-.31-1.198 0-1.963.543-1.963 1.374 0 .799.5 1.265 1.863 1.63.777.211 1.087.356 1.087.733 0 .343-.322.565-.92.565-.533 0-.954-.21-1.254-.432-.122-.089-.233-.156-.41-.156-.222 0-.4.145-.4.366 0 .145.067.311.223.433.443.344 1.064.566 1.763.566 1.32 0 2.007-.6 2.007-1.42z" stroke-width=".01109"/></g></svg>