<svg width="51.613" height="21.963" viewBox="0 0 51.613 21.963" xmlns="http://www.w3.org/2000/svg"><g fill="#fff" stroke="#fff"><path d="M25.907 12.39c-.792 0-1.32-.6-1.32-1.64v-.064c0-1.04.504-1.624 1.312-1.624s1.32.6 1.32 1.616v.064c0 1.024-.504 1.648-1.312 1.648zm-.032 1.288c1.848 0 3.056-1.2 3.056-2.96v-.064c0-1.776-1.288-2.872-3.032-2.872-1.712 0-3.024 1.168-3.024 2.912v.064c0 1.72 1.152 2.92 3 2.92zM29.73 13.582h1.649v-2.024h1.768V10.35h-1.768V9.134h2.216V7.862H29.73zM34.363 13.582h1.648v-2.024h1.768V10.35H36.01V9.134h2.216V7.862h-3.864z" stroke-width=".008"/></g></svg>