<svg width="454" height="54" viewBox="0 0 454 54" xmlns="http://www.w3.org/2000/svg"><g fill="#fff" stroke="#fff"><path d="M4.4 42.438h4.254V28.211h5.671c6.65 0 12.223-2.885 12.223-10.317V17.7c0-7.285-5.525-10.219-12.223-10.219H4.4zm4.254-17.601V10.903h5.965c4.742 0 7.676 1.858 7.676 6.796v.195c0 4.498-2.69 6.943-7.676 6.943zM27.722 42.438h4.009l3.373-10.072h14.423l3.423 10.072h4.205L45.323 7.48h-5.574zM42.34 11.001l6.063 17.992H36.278zM63.315 42.438h3.911V13.005l11.979 29.433h1.32l11.587-29.433v29.433h4.254V7.48h-5.867L80.036 34.713 69.23 7.48h-5.916zM105.166 42.438h4.254V28.211h5.671c6.65 0 12.223-2.885 12.223-10.317V17.7c0-7.285-5.525-10.219-12.223-10.219h-9.925zm4.254-17.601V10.903h5.965c4.742 0 7.676 1.858 7.676 6.796v.195c0 4.498-2.69 6.943-7.676 6.943zM133.572 42.438h20.242v-3.471h-15.988V7.48h-4.254zM173.86 39.358c-7.286 0-12.908-5.77-12.908-14.228v-.39c0-8.312 4.693-14.277 12.81-14.277 8.067 0 12.662 6.356 12.662 14.178v.392c0 8.458-4.791 14.325-12.565 14.325zm0 3.52c10.169 0 16.965-7.92 16.965-17.797v-.39c0-9.828-6.796-17.65-17.064-17.65-10.267 0-17.21 7.822-17.21 17.747v.391c0 9.779 6.992 17.7 17.308 17.7zM197.914 42.438h4.058v-29.97l17.65 29.97h4.89V7.48h-4.059v28.896L203.44 7.48h-5.525zM230.672 42.438h4.009l3.373-10.072h14.423l3.423 10.072h4.204L248.273 7.48h-5.574zm14.618-31.437l6.063 17.992h-12.125z" stroke-width=".04889"/></g></svg>