<svg width="427.622" height="34" viewBox="0 0 427.622 34" xmlns="http://www.w3.org/2000/svg"><g fill="#47A01a" stroke="#fff"><path d="M27.429 25.56l8.053-21.557h5.928l8.13 21.556h-5.76l-1.524-4.373h-7.729l-1.494 4.373zm8.253-8.639h5.389L38.36 9.47zM59.04 26.021q-2.495 0-4.458-1.085-1.963-1.086-3.103-2.972-1.14-1.886-1.14-4.257 0-1.786.67-3.295.67-1.51 1.887-2.64 1.216-1.133 2.833-1.756 1.617-.624 3.51-.624 1.786 0 3.31.485 1.525.485 2.741 1.455l-2.217 3.742q-.754-.693-1.655-1.016-.9-.324-1.886-.324-1.293 0-2.233.462-.939.462-1.44 1.355-.5.893-.5 2.14 0 1.879 1.117 2.933 1.116 1.055 3.071 1.055 1.109 0 2.087-.408.977-.408 1.793-1.193l2.048 3.818q-1.324.986-3.025 1.555-1.702.57-3.41.57zM75.006 26.021q-2.618 0-4.111-1.47-1.494-1.47-1.494-4.396V5.358h5.05v4.496h3.68v4.003h-3.68v5.42q0 1.263.555 1.77.554.509 1.432.509.477 0 .947-.116.47-.115.87-.346l.646 3.957q-.723.4-1.74.685-1.016.285-2.155.285zm-8.653-12.164V9.854h3.51v4.003zM81.92 25.56V9.853h5.05V25.56zm2.524-18.03q-1.216 0-2.117-.763-.9-.762-.9-2.055 0-1.294.9-2.048.901-.755 2.117-.755 1.232 0 2.125.755.893.754.893 2.048 0 1.293-.893 2.055-.893.762-2.125.762zM94.868 25.56L89.325 9.853h5.42l3.341 11.348h-.554l3.264-11.348h5.297L100.75 25.56zM114.792 26.021q-2.217 0-3.972-1.04-1.756-1.039-2.772-2.91-1.016-1.87-1.016-4.364 0-1.879.585-3.41.585-1.533 1.632-2.626t2.464-1.686q1.416-.593 3.08-.593 2.185 0 3.725.947t2.202 2.518l-.693 1.093V9.854h4.342V25.56h-4.342v-4.095l.693 1.077q-.662 1.57-2.202 2.525-1.54.955-3.726.955zm.862-4.342q1.047 0 1.886-.485.84-.485 1.332-1.378.493-.893.493-2.11 0-1.231-.493-2.116-.492-.886-1.332-1.37-.839-.486-1.886-.486t-1.878.485q-.832.485-1.324 1.37-.493.886-.493 2.118 0 1.216.493 2.11.492.892 1.324 1.377.831.485 1.878.485zM143.077 26.021q-2.587 0-4.543-1.04-1.955-1.039-3.048-2.91-1.093-1.87-1.093-4.38 0-1.817.639-3.34.639-1.525 1.786-2.634 1.147-1.108 2.71-1.717 1.562-.608 3.44-.608 2.064 0 3.68.732 1.617.731 2.672 2.032 1.055 1.301 1.455 3.064.4 1.763.03 3.826h-11.793q.015.924.554 1.617t1.478 1.085q.94.393 2.187.393 1.385 0 2.632-.362 1.248-.362 2.387-1.116l1.586 3.418q-.724.554-1.87.993-1.148.439-2.434.693-1.285.254-2.455.254zm-3.757-10.378h6.682q-.03-1.185-.878-1.893-.846-.709-2.294-.709-1.462 0-2.425.709-.962.708-1.085 1.893zM153.932 25.56V3.386h5.05V25.56zM170.468 24.959l1.17-4.897h-2.54l.785-3.325h2.525l.908-3.85h-2.555l.785-3.325h2.556l1.185-4.974h3.526l-1.185 4.974h3.541l1.186-4.974h3.526l-1.186 4.974h2.494l-.754 3.34h-2.525l-.878 3.82h2.525l-.785 3.371h-2.54l-1.202 4.881h-3.525l1.17-4.88-3.51-.032-1.171 4.897zm5.466-8.222l3.572-.016.878-3.818-3.572-.016zM190.654 25.56V4.002h4.911l8.192 13.596-2.033.015 7.791-13.61h4.896v21.555h-4.958l.093-15.027.908.323-6.22 10.64h-3.403l-6.467-10.64.878-.323.092 15.027zM226.544 26.021q-2.571 0-4.542-1.132-1.97-1.131-3.087-3.025-1.116-1.894-1.116-4.157 0-1.648.639-3.149.639-1.501 1.809-2.664 1.17-1.162 2.771-1.832 1.602-.67 3.526-.67 2.572 0 4.542 1.132 1.971 1.132 3.08 3.025 1.108 1.894 1.108 4.158 0 1.647-.63 3.148-.632 1.502-1.802 2.656-1.17 1.155-2.772 1.833-1.601.677-3.526.677zm0-4.342q1.078 0 1.94-.485.863-.485 1.355-1.378.493-.893.493-2.11 0-1.231-.485-2.116-.485-.886-1.347-1.37-.863-.486-1.956-.486t-1.955.485q-.862.485-1.355 1.37-.493.886-.493 2.118 0 1.216.5 2.11.501.892 1.363 1.377t1.94.485zM244.944 26.021q-2.233 0-4.003-1.04-1.771-1.039-2.787-2.91-1.017-1.87-1.017-4.364 0-1.771.586-3.28.585-1.509 1.64-2.64 1.054-1.132 2.501-1.763 1.448-.632 3.172-.632 1.802 0 3.249.709 1.447.708 2.525 2.109l-1.155 1.155V3.387h5.05V25.56h-4.357v-4.08l.693 1.14q-.677 1.508-2.263 2.455-1.586.947-3.834.947zm.939-4.342q1.078 0 1.94-.485.862-.485 1.355-1.378.493-.893.493-2.11 0-1.231-.485-2.116-.485-.886-1.348-1.37-.862-.486-1.955-.486t-1.955.485q-.863.485-1.355 1.37-.493.886-.493 2.118 0 1.216.5 2.11.5.892 1.363 1.377.862.485 1.94.485zM266.392 26.021q-2.571 0-4.542-1.132-1.971-1.131-3.087-3.025-1.117-1.894-1.117-4.157 0-1.648.64-3.149.638-1.501 1.809-2.664 1.17-1.162 2.771-1.832 1.601-.67 3.526-.67 2.571 0 4.542 1.132 1.971 1.132 3.08 3.025 1.108 1.894 1.108 4.158 0 1.647-.631 3.148-.631 1.502-1.802 2.656-1.17 1.155-2.771 1.833-1.601.677-3.526.677zm0-4.342q1.078 0 1.94-.485.862-.485 1.355-1.378.493-.893.493-2.11 0-1.231-.485-2.116-.485-.886-1.348-1.37-.862-.486-1.955-.486t-1.955.485q-.863.485-1.355 1.37-.493.886-.493 2.118 0 1.216.5 2.11.5.892 1.363 1.377.862.485 1.94.485zM288.502 26.021q-3.34 0-5.897-1.37-2.556-1.37-3.988-3.88t-1.432-5.928q0-2.495.84-4.565.839-2.071 2.37-3.58 1.533-1.51 3.619-2.333 2.086-.824 4.565-.824 2.695 0 4.527.678 1.832.677 3.31 1.924l-2.556 4.204q-.893-.924-2.155-1.378-1.263-.454-2.787-.454-1.509 0-2.687.438-1.178.44-2.001 1.255-.824.816-1.255 1.971-.431 1.155-.431 2.587 0 1.97.777 3.372.778 1.4 2.225 2.148 1.447.746 3.464.746 1.448 0 2.872-.438 1.424-.44 2.702-1.425l2.34 4.296q-1.493 1.155-3.572 1.856-2.078.7-4.85.7zM306.101 26.021q-2.217 0-3.972-1.04-1.756-1.039-2.772-2.91-1.016-1.87-1.016-4.364 0-1.879.585-3.41.585-1.533 1.632-2.626t2.464-1.686q1.416-.593 3.08-.593 2.186 0 3.725.947 1.54.947 2.202 2.518l-.693 1.093V9.854h4.342V25.56h-4.342v-4.095l.693 1.077q-.662 1.57-2.202 2.525-1.54.955-3.726.955zm.862-4.342q1.047 0 1.887-.485.839-.485 1.331-1.378.493-.893.493-2.11 0-1.231-.493-2.116-.492-.886-1.331-1.37-.84-.486-1.887-.486-1.047 0-1.878.485-.832.485-1.324 1.37-.493.886-.493 2.118 0 1.216.493 2.11.492.892 1.324 1.377.831.485 1.878.485zM319.866 25.56V9.853h5.05v1.663q.878-1.109 2.079-1.617t2.525-.508q2.217 0 3.65.87 1.431.87 2.116 2.248.685 1.378.685 2.918v10.131h-5.05v-8.545q0-1.417-.747-2.233-.746-.816-2.194-.816-.923 0-1.609.4-.685.4-1.07 1.132-.385.732-.385 1.67v8.392zM346.534 26.021q-2.217 0-3.973-1.04-1.755-1.039-2.771-2.91-1.016-1.87-1.016-4.364 0-1.879.585-3.41.585-1.533 1.632-2.626t2.463-1.686q1.417-.593 3.08-.593 2.186 0 3.726.947t2.202 2.518l-.693 1.093V9.854h4.342V25.56h-4.342v-4.095l.693 1.077q-.662 1.57-2.202 2.525-1.54.955-3.726.955zm.862-4.342q1.047 0 1.886-.485.84-.485 1.332-1.378.493-.893.493-2.11 0-1.231-.493-2.116-.493-.886-1.332-1.37-.839-.486-1.886-.486t-1.878.485q-.832.485-1.324 1.37-.493.886-.493 2.118 0 1.216.493 2.11.492.892 1.324 1.377.831.485 1.878.485zM360.299 25.56V9.853h5.05v1.832q.708-1.216 1.879-1.77 1.17-.555 2.54-.555.524 0 .94.062.415.062.815.139l-.6 5.188q-.524-.184-1.109-.3-.585-.115-1.17-.115-1.432 0-2.363.823-.932.824-.932 2.41v7.991zM373.956 25.56V9.853h5.05V25.56zm2.525-18.03q-1.216 0-2.117-.763-.9-.762-.9-2.055 0-1.294.9-2.048.9-.755 2.117-.755 1.232 0 2.125.755.893.754.893 2.048 0 1.293-.893 2.055-.893.762-2.125.762zM390.708 26.021q-2.571 0-4.542-1.132-1.97-1.131-3.087-3.025-1.116-1.894-1.116-4.157 0-1.648.639-3.149.639-1.501 1.809-2.664 1.17-1.162 2.771-1.832 1.602-.67 3.526-.67 2.572 0 4.542 1.132 1.971 1.132 3.08 3.025 1.108 1.894 1.108 4.158 0 1.647-.63 3.148-.632 1.502-1.802 2.656-1.17 1.155-2.772 1.833-1.601.677-3.526.677zm0-4.342q1.078 0 1.94-.485.862-.485 1.355-1.378.493-.893.493-2.11 0-1.231-.485-2.116-.485-.886-1.347-1.37-.863-.486-1.956-.486t-1.955.485q-.862.485-1.355 1.37-.493.886-.493 2.118 0 1.216.5 2.11.5.892 1.363 1.377.862.485 1.94.485z" stroke-width=".0154"/></g></svg>