<svg width="69.066" height="20" viewBox="0 0 69.066 20" xmlns="http://www.w3.org/2000/svg"><g fill="#fff" stroke="#fff"><path d="M1.58 5.088c-.018-.118-.073-.21-.21-.21s-.2.092-.219.21l-.21 1.59V8.66c0 .238.174.43.43.43.255 0 .429-.192.429-.43V6.678zM.822 3.782a.55.55 0 00.548.548.55.55 0 00.548-.548.55.55 0 00-.548-.548.55.55 0 00-.548.548zM8.057 5.691c0-1.041-.813-1.434-2.274-1.89-1.05-.33-1.499-.521-1.499-1.06 0-.594.576-.85 1.471-.85.603 0 1.115.192 1.562.448a.35.35 0 00.174.045c.256 0 .375-.182.375-.392 0-.284-.43-.503-.74-.622a3.929 3.929 0 00-1.38-.255c-1.37 0-2.339.548-2.339 1.644 0 .859.512 1.361 2.138 1.845 1.096.33 1.635.52 1.635 1.133 0 .52-.475.914-1.443.914-.75 0-1.215-.247-1.717-.567-.11-.064-.201-.11-.311-.11-.21 0-.375.128-.375.357 0 .155.1.301.238.41.53.412 1.352.677 2.156.677 1.525 0 2.33-.75 2.33-1.727zM13.146 5.326c0-1.151-.822-2.092-2.092-2.092s-2.092.94-2.092 2.092c0 1.151.822 2.092 2.092 2.092s2.092-.941 2.092-2.092zm-.859 0c0 .74-.43 1.361-1.233 1.361-.804 0-1.233-.621-1.233-1.361s.429-1.361 1.233-1.361 1.233.621 1.233 1.36zM15.119 6.952V1.58a.418.418 0 00-.43-.429.418.418 0 00-.429.43v5.371c0 .238.174.43.43.43.255 0 .429-.192.429-.43zM20.418 5.326c0-1.151-.823-2.092-2.092-2.092-1.27 0-2.092.94-2.092 2.092 0 1.151.822 2.092 2.092 2.092s2.092-.941 2.092-2.092zm-.86 0c0 .74-.429 1.361-1.232 1.361-.804 0-1.234-.621-1.234-1.361s.43-1.361 1.234-1.361c.803 0 1.233.621 1.233 1.36zM28.01 6.952V5.088c0-1.078-.604-1.854-1.654-1.854-.603 0-1.06.274-1.316.767V1.59c0-.302-.192-.439-.43-.439-.246 0-.429.164-.429.439v5.362c0 .238.174.43.43.43.246 0 .43-.192.43-.43V5.134c0-.621.392-1.124 1.077-1.124.685 0 1.032.475 1.032 1.115v1.827c0 .238.174.43.43.43.274 0 .43-.202.43-.43zM32.75 6.952V4.961c0-1.115-.676-1.727-1.882-1.727-.41 0-.904.073-1.224.2-.228.092-.402.202-.402.412 0 .201.137.356.366.356.1 0 .2-.045.283-.073a2.5 2.5 0 01.904-.164c.795 0 1.097.329 1.097 1.05v.393a1.792 1.792 0 00-1.234-.466c-.886 0-1.553.43-1.553 1.243 0 .73.63 1.233 1.517 1.233.584 0 1.014-.201 1.288-.548v.082c0 .238.164.43.42.43.283 0 .42-.192.42-.43zm-.858-.767c0 .383-.457.648-.996.648-.548 0-.932-.237-.932-.648 0-.411.375-.649.95-.649.484 0 .978.238.978.649zM37.208 6.249c0-.74-.511-1.005-1.498-1.288-.658-.192-.932-.293-.932-.603 0-.32.311-.439.768-.439.329 0 .612.073.868.21.137.073.255.128.374.128.238 0 .329-.155.329-.32 0-.182-.174-.329-.42-.447a2.7 2.7 0 00-1.133-.256c-.987 0-1.617.448-1.617 1.133 0 .657.411 1.041 1.535 1.343.64.173.895.292.895.603 0 .283-.265.465-.758.465-.439 0-.786-.173-1.032-.356a.53.53 0 00-.338-.128c-.183 0-.33.119-.33.302 0 .119.055.256.183.356.366.283.877.466 1.453.466 1.087 0 1.653-.493 1.653-1.17zM39.593 6.952V4.056h.785a.351.351 0 00.357-.356.351.351 0 00-.357-.356h-.785V2.147a.418.418 0 00-.43-.43.418.418 0 00-.429.43v1.197h-.694a.351.351 0 00-.357.356c0 .2.156.356.357.356h.694v2.896c0 .238.174.43.43.43.255 0 .429-.192.429-.43zM44.836 6.952V4.961c0-1.115-.676-1.727-1.881-1.727-.412 0-.905.073-1.225.2-.228.092-.402.202-.402.412 0 .201.137.356.366.356.1 0 .2-.045.283-.073a2.5 2.5 0 01.904-.164c.795 0 1.097.329 1.097 1.05v.393a1.792 1.792 0 00-1.234-.466c-.886 0-1.553.43-1.553 1.243 0 .73.63 1.233 1.517 1.233.585 0 1.014-.201 1.288-.548v.082c0 .238.164.43.42.43.283 0 .42-.192.42-.43zm-.858-.767c0 .383-.457.648-.996.648-.548 0-.932-.237-.932-.648 0-.411.375-.649.95-.649.484 0 .978.238.978.649zM50.583 3.234c-1.179 0-2.047.895-2.047 2.092 0 1.142.722 2.092 2.083 2.092.658 0 1.28-.265 1.626-.667a.38.38 0 00.11-.247.345.345 0 00-.356-.356.42.42 0 00-.284.137c-.301.283-.584.448-1.06.448-.758 0-1.187-.475-1.233-1.106h2.732c.247 0 .329-.146.329-.292 0-1.17-.75-2.101-1.9-2.101zm1.105 1.7h-2.247c.082-.567.511-1.015 1.142-1.015.62 0 1.032.466 1.105 1.014zM54.465 6.952V1.58a.418.418 0 00-.43-.429.418.418 0 00-.429.43v5.371c0 .238.174.43.43.43s.43-.192.43-.43zM60.504 6.952V1.59c0-.284-.174-.439-.42-.439a.552.552 0 00-.202.037l-1.543.475c-.192.054-.311.164-.311.374 0 .247.22.393.43.393.036 0 .072-.01.109-.018l1.078-.33v4.87c0 .238.173.43.43.43.255 0 .429-.192.429-.43zM66.761 5.445c0-1.133-.822-1.91-2.137-1.91-.685 0-1.37.229-1.773.832.311-1.215 1.288-2 2.303-2.558.182-.1.264-.21.264-.366 0-.173-.127-.328-.365-.328-.1 0-.174.027-.274.063-1.288.503-2.814 1.983-2.814 3.983 0 1.28.84 2.257 2.449 2.257 1.452 0 2.347-.85 2.347-1.973zm-.858.009c0 .694-.549 1.242-1.48 1.242-.923 0-1.49-.475-1.49-1.224 0-.767.722-1.215 1.526-1.215.859 0 1.444.448 1.444 1.197z" stroke-width=".00914"/></g><g fill="#fff" stroke="#fff"><path d="M.43 15.375c0 1.215.858 2.092 1.909 2.092.612 0 1.16-.31 1.434-.786v.31c0 .238.155.44.42.44s.411-.193.411-.43v-5.372a.418.418 0 00-.43-.429.418.418 0 00-.428.43v2.438a1.643 1.643 0 00-1.407-.785c-1.05 0-1.91.831-1.91 2.092zm.858 0c0-.822.484-1.38 1.224-1.38s1.234.649 1.234 1.38c0 .73-.494 1.38-1.234 1.38s-1.224-.558-1.224-1.38zM7.765 13.283c-1.178 0-2.046.895-2.046 2.092 0 1.142.721 2.092 2.083 2.092.657 0 1.279-.265 1.626-.667a.38.38 0 00.11-.247.345.345 0 00-.357-.356.42.42 0 00-.283.137c-.302.283-.585.448-1.06.448-.758 0-1.187-.475-1.233-1.106h2.731c.247 0 .33-.146.33-.292 0-1.17-.75-2.101-1.9-2.101zm1.105 1.699H6.623c.082-.566.512-1.014 1.142-1.014.621 0 1.032.466 1.105 1.014zM15.229 13.283c-1.179 0-2.047.895-2.047 2.092 0 1.142.722 2.092 2.083 2.092.658 0 1.28-.265 1.626-.667a.38.38 0 00.11-.247.345.345 0 00-.356-.356.42.42 0 00-.284.137c-.301.283-.584.448-1.06.448-.757 0-1.187-.475-1.233-1.106H16.8c.247 0 .329-.146.329-.292 0-1.17-.75-2.101-1.9-2.101zm1.105 1.699h-2.247c.082-.566.511-1.014 1.142-1.014.62 0 1.032.466 1.105 1.014zM22.08 17v-1.863c0-1.078-.603-1.854-1.653-1.854-.603 0-1.06.274-1.316.767v-.292c0-.302-.192-.439-.43-.439-.246 0-.429.165-.429.439V17c0 .237.174.43.43.43.247 0 .43-.193.43-.43v-1.818c0-.621.392-1.124 1.077-1.124.685 0 1.032.475 1.032 1.115V17c0 .237.174.43.43.43.274 0 .43-.202.43-.43zM25.195 13.283c-1.178 0-2.046.895-2.046 2.092 0 1.142.722 2.092 2.083 2.092.658 0 1.279-.265 1.626-.667a.38.38 0 00.11-.247.345.345 0 00-.357-.356.42.42 0 00-.283.137c-.301.283-.585.448-1.06.448-.758 0-1.187-.475-1.233-1.106h2.732c.246 0 .329-.146.329-.292 0-1.17-.75-2.101-1.9-2.101zm1.106 1.699h-2.248c.083-.566.512-1.014 1.142-1.014.622 0 1.033.466 1.106 1.014zM30.64 13.703a.384.384 0 00-.402-.402c-.575 0-1.005.329-1.16.85v-.393c0-.265-.174-.439-.42-.439a.422.422 0 00-.439.439V17c0 .237.155.43.43.43.246 0 .429-.193.429-.43v-1.498c0-.923.438-1.398 1.16-1.398a.394.394 0 00.402-.402zM35.244 15.375c0-1.151-.822-2.092-2.092-2.092s-2.092.94-2.092 2.092c0 1.15.822 2.092 2.092 2.092s2.092-.941 2.092-2.092zm-.858 0c0 .74-.43 1.361-1.234 1.361s-1.233-.621-1.233-1.361.43-1.361 1.233-1.361c.804 0 1.234.62 1.234 1.36zM37.473 13.986V11.63a.418.418 0 00-.429-.429.418.418 0 00-.43.43v2.356l.21 1.59c.019.119.083.21.22.21s.192-.091.21-.21zm-.977 2.896a.55.55 0 00.548.548.55.55 0 00.548-.548.55.55 0 00-.548-.548.55.55 0 00-.548.548z" stroke-width=".00914"/></g></svg>