<svg width="71.561" height="100" viewBox="0 0 71.561 100" xmlns="http://www.w3.org/2000/svg"><g fill="#fff" stroke="#fff"><path d="M2.969 6.057l-1.928-4.65C.96 1.206.822 1.15.658 1.15c-.201 0-.42.137-.42.411 0 .055.018.11.045.183l2.311 5.39a.372.372 0 00.375.246c.192 0 .31-.091.375-.246l2.31-5.39a.533.533 0 00.046-.183c0-.274-.219-.41-.42-.41-.164 0-.301.054-.383.255zM6.075 3.7v1.863c0 1.078.603 1.855 1.654 1.855.602 0 1.06-.274 1.315-.767v.292c0 .301.192.438.43.438.246 0 .429-.164.429-.438V3.7a.418.418 0 00-.43-.43.423.423 0 00-.429.43v1.818c0 .621-.393 1.123-1.078 1.123s-1.032-.475-1.032-1.114V3.7a.418.418 0 00-.43-.43c-.274 0-.429.201-.429.43zM13.064 3.234c-1.179 0-2.047.895-2.047 2.092 0 1.142.722 2.092 2.083 2.092.658 0 1.28-.265 1.626-.667a.38.38 0 00.11-.247.345.345 0 00-.356-.356.42.42 0 00-.284.137c-.301.283-.584.448-1.06.448-.758 0-1.187-.475-1.233-1.106h2.732c.247 0 .329-.146.329-.292 0-1.17-.75-2.101-1.9-2.101zm1.105 1.7h-2.247c.082-.567.511-1.015 1.142-1.015.62 0 1.032.466 1.105 1.014zM16.946 6.952V1.58a.418.418 0 00-.43-.429.418.418 0 00-.429.43v5.371c0 .238.174.43.43.43s.43-.192.43-.43zM21.733 6.952V4.961c0-1.115-.676-1.727-1.882-1.727-.41 0-.904.073-1.224.2-.228.092-.402.202-.402.412 0 .201.137.356.365.356.101 0 .201-.045.284-.073a2.5 2.5 0 01.904-.164c.795 0 1.096.329 1.096 1.05v.393a1.792 1.792 0 00-1.233-.466c-.886 0-1.553.43-1.553 1.243 0 .73.63 1.233 1.517 1.233.584 0 1.014-.201 1.288-.548v.082c0 .238.164.43.42.43.283 0 .42-.192.42-.43zm-.859-.767c0 .383-.456.648-.995.648-.549 0-.932-.237-.932-.648 0-.411.374-.649.95-.649.484 0 .977.238.977.649zM25.433 5.326c0 1.215.859 2.092 1.91 2.092.611 0 1.16-.31 1.433-.786v.31c0 .238.156.44.42.44.266 0 .412-.192.412-.43V1.58a.418.418 0 00-.43-.429.418.418 0 00-.429.43V4.02a1.643 1.643 0 00-1.407-.786c-1.05 0-1.91.831-1.91 2.092zm.859 0c0-.822.484-1.38 1.224-1.38s1.233.65 1.233 1.38c0 .73-.493 1.38-1.233 1.38-.74 0-1.224-.558-1.224-1.38zM32.769 3.234c-1.179 0-2.047.895-2.047 2.092 0 1.142.722 2.092 2.083 2.092.658 0 1.28-.265 1.626-.667a.38.38 0 00.11-.247.345.345 0 00-.356-.356.42.42 0 00-.284.137c-.301.283-.584.448-1.06.448-.758 0-1.187-.475-1.233-1.106h2.732c.247 0 .329-.146.329-.292 0-1.17-.75-2.101-1.9-2.101zm1.105 1.7h-2.247c.082-.567.511-1.015 1.142-1.015.62 0 1.032.466 1.105 1.014zM41.858 6.952V4.961c0-1.115-.676-1.727-1.882-1.727-.41 0-.904.073-1.224.2-.228.092-.402.202-.402.412 0 .201.137.356.366.356.1 0 .2-.045.283-.073a2.5 2.5 0 01.904-.164c.795 0 1.097.329 1.097 1.05v.393a1.792 1.792 0 00-1.234-.466c-.886 0-1.553.43-1.553 1.243 0 .73.63 1.233 1.517 1.233.584 0 1.014-.201 1.288-.548v.082c0 .238.164.43.42.43.283 0 .42-.192.42-.43zM41 6.185c0 .383-.457.648-.996.648-.548 0-.932-.237-.932-.648 0-.411.375-.649.95-.649.484 0 .978.238.978.649zM47.34 5.326c0-1.26-.86-2.092-1.91-2.092-.612 0-1.114.32-1.407.786V1.58a.418.418 0 00-.429-.429.418.418 0 00-.43.43v5.371c0 .238.147.43.412.43s.42-.202.42-.44v-.31c.274.475.822.786 1.434.786 1.05 0 1.91-.877 1.91-2.092zm-.86 0c0 .822-.483 1.38-1.223 1.38-.74 0-1.234-.65-1.234-1.38 0-.73.494-1.38 1.234-1.38s1.224.558 1.224 1.38zM50.875 3.654a.384.384 0 00-.402-.402c-.576 0-1.005.33-1.16.85v-.393c0-.265-.174-.439-.42-.439a.422.422 0 00-.439.439v3.243c0 .238.155.43.43.43.246 0 .429-.192.429-.43V5.454c0-.923.438-1.398 1.16-1.398a.394.394 0 00.402-.402zM52.528 6.952V3.7a.423.423 0 00-.429-.43.423.423 0 00-.43.43v3.252c0 .238.174.43.43.43s.43-.192.43-.43zm-.931-4.805c0 .274.228.502.502.502a.507.507 0 00.503-.502.507.507 0 00-.503-.503.507.507 0 00-.502.503zM54.757 6.952V1.58a.418.418 0 00-.429-.429.418.418 0 00-.43.43v5.371c0 .238.174.43.43.43s.43-.192.43-.43zM62.194 6.952V4.961c0-1.115-.676-1.727-1.882-1.727-.411 0-.905.073-1.224.2-.229.092-.402.202-.402.412 0 .201.137.356.365.356.1 0 .201-.045.283-.073a2.5 2.5 0 01.905-.164c.794 0 1.096.329 1.096 1.05v.393a1.792 1.792 0 00-1.233-.466c-.886 0-1.553.43-1.553 1.243 0 .73.63 1.233 1.516 1.233.585 0 1.014-.201 1.288-.548v.082c0 .238.165.43.42.43.284 0 .42-.192.42-.43zm-.86-.767c0 .383-.456.648-.995.648-.548 0-.932-.237-.932-.648 0-.411.375-.649.95-.649.485 0 .978.238.978.649z" stroke-width=".00914"/></g><g fill="#fff" stroke="#fff"><path d="M1.544 17.65v-3.901a.423.423 0 00-.43-.43.423.423 0 00-.429.43v3.955c0 .485-.137.722-.667.722H0a.346.346 0 00-.356.356c0 .201.155.357.356.357h.1c1.07 0 1.444-.53 1.444-1.49zm-.932-5.454c0 .274.228.502.503.502a.507.507 0 00.502-.502.507.507 0 00-.502-.503.507.507 0 00-.503.503zM2.869 13.749v1.863c0 1.078.602 1.855 1.653 1.855.603 0 1.06-.274 1.316-.768v.293c0 .301.191.438.429.438.247 0 .43-.164.43-.438v-3.243a.418.418 0 00-.43-.43.423.423 0 00-.43.43v1.818c0 .62-.392 1.123-1.077 1.123-.686 0-1.033-.475-1.033-1.114v-1.827a.418.418 0 00-.43-.43c-.273 0-.428.201-.428.43zM11.894 17v-1.863c0-1.078-.603-1.854-1.653-1.854-.603 0-1.06.274-1.316.767v-.292c0-.302-.192-.439-.43-.439-.246 0-.428.165-.428.439V17c0 .237.173.43.429.43.247 0 .43-.193.43-.43v-1.818c0-.621.392-1.124 1.077-1.124.685 0 1.033.475 1.033 1.115V17c0 .237.173.43.429.43.274 0 .43-.202.43-.43zM14.078 17V13.75a.423.423 0 00-.43-.43.423.423 0 00-.43.43V17c0 .237.174.43.43.43s.43-.193.43-.43zm-.932-4.804c0 .274.228.502.502.502a.507.507 0 00.503-.502.507.507 0 00-.503-.503.507.507 0 00-.502.503zM19.376 15.375c0-1.151-.822-2.092-2.092-2.092s-2.092.94-2.092 2.092c0 1.15.822 2.092 2.092 2.092s2.092-.941 2.092-2.092zm-.859 0c0 .74-.429 1.361-1.233 1.361s-1.233-.621-1.233-1.361.43-1.361 1.233-1.361c.804 0 1.233.62 1.233 1.36z" stroke-width=".00914"/></g></svg>